<svg width="297" height="298" viewBox="0 0 297 298" fill="none" xmlns="http://www.w3.org/2000/svg">
<path d="M141.311 55.0322C146.749 55.0322 151.991 57.5727 156.824 62.29C161.66 67.0107 166.049 73.8781 169.751 82.4219C177.155 99.5072 181.753 123.162 181.753 149.33C181.753 175.498 177.155 199.153 169.751 216.238C166.049 224.782 161.66 231.649 156.824 236.37C151.991 241.087 146.749 243.628 141.311 243.628C135.873 243.628 130.632 241.087 125.799 236.37C120.963 231.649 116.574 224.782 112.872 216.238C105.468 199.153 100.87 175.498 100.87 149.33C100.87 123.162 105.468 99.5072 112.872 82.4219C116.574 73.878 120.963 67.0107 125.799 62.29C130.632 57.5728 135.873 55.0324 141.311 55.0322Z" stroke="url(#paint0_linear_1_456)" stroke-width="1.485"/>
<path d="M147.647 55.0322C153.085 55.0322 158.327 57.5727 163.16 62.29C167.996 67.0107 172.385 73.8781 176.087 82.4219C183.491 99.5072 188.089 123.162 188.089 149.33C188.089 175.498 183.491 199.153 176.087 216.238C172.385 224.782 167.996 231.649 163.16 236.37C158.327 241.087 153.085 243.628 147.647 243.628C142.209 243.628 136.968 241.087 132.135 236.37C127.299 231.649 122.91 224.782 119.208 216.238C111.804 199.153 107.206 175.498 107.206 149.33C107.206 123.162 111.804 99.5072 119.208 82.4219C122.91 73.878 127.299 67.0107 132.135 62.29C136.968 57.5728 142.209 55.0324 147.647 55.0322Z" stroke="url(#paint1_linear_1_456)" stroke-width="1.485"/>
<path d="M153.983 55.0322C159.422 55.0322 164.663 57.5727 169.496 62.29C174.332 67.0107 178.722 73.8781 182.424 82.4219C189.827 99.5072 194.426 123.162 194.426 149.33C194.426 175.498 189.827 199.153 182.424 216.238C178.721 224.782 174.332 231.649 169.496 236.37C164.663 241.087 159.422 243.628 153.983 243.628C148.545 243.628 143.305 241.087 138.472 236.37C133.635 231.649 129.246 224.782 125.544 216.238C118.14 199.153 113.542 175.498 113.542 149.33C113.542 123.162 118.14 99.5072 125.544 82.4219C129.246 73.878 133.635 67.0107 138.472 62.29C143.305 57.5728 148.545 55.0324 153.983 55.0322Z" stroke="url(#paint2_linear_1_456)" stroke-width="1.485"/>
<path d="M62.8146 107.668C65.5337 102.959 70.3546 99.6898 76.8564 97.863C83.3628 96.0349 91.5046 95.6675 100.755 96.7331C119.253 98.8641 142.038 106.709 164.7 119.793C187.362 132.877 205.549 148.687 216.643 163.641C222.191 171.12 225.944 178.354 227.614 184.903C229.283 191.447 228.862 197.257 226.143 201.966C223.424 206.676 218.604 209.944 212.102 211.771C205.596 213.599 197.454 213.966 188.203 212.901C169.705 210.77 146.92 202.925 124.258 189.841C101.596 176.757 83.4096 160.947 72.315 145.993C66.767 138.514 63.0142 131.28 61.3442 124.731C59.6754 118.187 60.0957 112.378 62.8146 107.668Z" stroke="url(#paint3_linear_1_456)" stroke-width="1.485"/>
<path d="M65.9826 102.181C68.7017 97.4716 73.5226 94.2025 80.0244 92.3756C86.5308 90.5476 94.6726 90.1802 103.923 91.2458C122.421 93.3767 145.206 101.222 167.868 114.306C190.53 127.39 208.717 143.2 219.811 158.154C225.359 165.632 229.112 172.867 230.782 179.416C232.451 185.96 232.03 191.769 229.311 196.479C226.592 201.188 221.772 204.457 215.27 206.284C208.764 208.112 200.622 208.479 191.371 207.413C172.873 205.283 150.088 197.437 127.426 184.353C104.764 171.269 86.5775 155.46 75.483 140.505C69.935 133.027 66.1822 125.792 64.5122 119.244C62.8434 112.7 63.2637 106.891 65.9826 102.181Z" stroke="url(#paint4_linear_1_456)" stroke-width="1.485"/>
<path d="M69.1506 96.6948C71.8696 91.9852 76.6905 88.7161 83.1924 86.8893C89.6987 85.0613 97.8406 84.6939 107.091 85.7595C125.589 87.8904 148.374 95.7357 171.036 108.82C193.698 121.903 211.885 137.713 222.979 152.668C228.527 160.146 232.28 167.381 233.95 173.929C235.619 180.474 235.198 186.283 232.479 190.993C229.76 195.702 224.94 198.971 218.438 200.797C211.932 202.625 203.79 202.993 194.539 201.927C176.041 199.796 153.256 191.951 130.594 178.867C107.932 165.783 89.7455 149.973 78.651 135.019C73.103 127.541 69.3502 120.306 67.6802 113.757C66.0114 107.213 66.4317 101.404 69.1506 96.6948Z" stroke="url(#paint5_linear_1_456)" stroke-width="1.485"/>
<path d="M232.479 107.668C229.76 102.959 224.939 99.6898 218.438 97.863C211.931 96.0349 203.789 95.6675 194.539 96.7331C176.041 98.8641 153.256 106.709 130.594 119.793C107.932 132.877 89.7451 148.687 78.6506 163.641C73.1026 171.12 69.3498 178.354 67.6798 184.903C66.0109 191.447 66.4316 197.257 69.1507 201.966C71.8698 206.676 76.6903 209.944 83.192 211.771C89.6983 213.599 97.8402 213.966 107.091 212.901C125.589 210.77 148.374 202.925 171.036 189.841C193.698 176.757 211.884 160.947 222.979 145.993C228.527 138.514 232.28 131.28 233.95 124.731C235.619 118.187 235.198 112.378 232.479 107.668Z" stroke="url(#paint6_linear_1_456)" stroke-width="1.485"/>
<path d="M229.311 102.181C226.592 97.4716 221.771 94.2025 215.27 92.3756C208.763 90.5476 200.621 90.1802 191.371 91.2458C172.873 93.3767 150.088 101.222 127.426 114.306C104.764 127.39 86.5771 143.2 75.4826 158.154C69.9346 165.632 66.1818 172.867 64.5118 179.416C62.8429 185.96 63.2636 191.769 65.9827 196.479C68.7018 201.188 73.5223 204.457 80.024 206.284C86.5304 208.112 94.6722 208.479 103.923 207.413C122.421 205.283 145.206 197.437 167.868 184.353C190.53 171.269 208.716 155.46 219.811 140.505C225.359 133.027 229.112 125.792 230.782 119.244C232.451 112.7 232.03 106.891 229.311 102.181Z" stroke="url(#paint7_linear_1_456)" stroke-width="1.485"/>
<path d="M226.143 96.6948C223.424 91.9852 218.603 88.7161 212.102 86.8893C205.595 85.0613 197.453 84.6939 188.203 85.7595C169.705 87.8904 146.92 95.7357 124.258 108.82C101.596 121.903 83.4092 137.713 72.3146 152.668C66.7666 160.146 63.0138 167.381 61.3438 173.929C59.675 180.474 60.0956 186.283 62.8147 190.993C65.5338 195.702 70.3544 198.971 76.856 200.797C83.3624 202.625 91.5042 202.993 100.755 201.927C119.253 199.796 142.038 191.951 164.7 178.867C187.362 165.783 205.548 149.973 216.643 135.019C222.191 127.541 225.944 120.306 227.614 113.757C229.283 107.213 228.862 101.404 226.143 96.6948Z" stroke="url(#paint8_linear_1_456)" stroke-width="1.485"/>
<defs>
<linearGradient id="paint0_linear_1_456" x1="141.311" y1="54.29" x2="186.118" y2="263.319" gradientUnits="userSpaceOnUse">
<stop stop-color="white"/>
<stop offset="1" stop-color="white" stop-opacity="0"/>
</linearGradient>
<linearGradient id="paint1_linear_1_456" x1="147.647" y1="54.29" x2="192.454" y2="263.319" gradientUnits="userSpaceOnUse">
<stop stop-color="white"/>
<stop offset="1" stop-color="white" stop-opacity="0"/>
</linearGradient>
<linearGradient id="paint2_linear_1_456" x1="153.984" y1="54.29" x2="198.791" y2="263.319" gradientUnits="userSpaceOnUse">
<stop stop-color="white"/>
<stop offset="1" stop-color="white" stop-opacity="0"/>
</linearGradient>
<linearGradient id="paint3_linear_1_456" x1="62.1721" y1="107.297" x2="265.6" y2="173.007" gradientUnits="userSpaceOnUse">
<stop stop-color="white"/>
<stop offset="1" stop-color="white" stop-opacity="0"/>
</linearGradient>
<linearGradient id="paint4_linear_1_456" x1="65.34" y1="101.81" x2="268.768" y2="167.52" gradientUnits="userSpaceOnUse">
<stop stop-color="white"/>
<stop offset="1" stop-color="white" stop-opacity="0"/>
</linearGradient>
<linearGradient id="paint5_linear_1_456" x1="68.508" y1="96.3234" x2="271.936" y2="162.034" gradientUnits="userSpaceOnUse">
<stop stop-color="white"/>
<stop offset="1" stop-color="white" stop-opacity="0"/>
</linearGradient>
<linearGradient id="paint6_linear_1_456" x1="233.122" y1="107.297" x2="29.6943" y2="173.007" gradientUnits="userSpaceOnUse">
<stop stop-color="white"/>
<stop offset="1" stop-color="white" stop-opacity="0"/>
</linearGradient>
<linearGradient id="paint7_linear_1_456" x1="229.954" y1="101.81" x2="26.5263" y2="167.52" gradientUnits="userSpaceOnUse">
<stop stop-color="white"/>
<stop offset="1" stop-color="white" stop-opacity="0"/>
</linearGradient>
<linearGradient id="paint8_linear_1_456" x1="226.786" y1="96.3234" x2="23.3583" y2="162.034" gradientUnits="userSpaceOnUse">
<stop stop-color="white"/>
<stop offset="1" stop-color="white" stop-opacity="0"/>
</linearGradient>
</defs>
</svg>
