<svg width="299" height="298" viewBox="0 0 299 298" fill="none" xmlns="http://www.w3.org/2000/svg">
<path d="M149.5 54.6489C178.952 54.649 205.579 60.6187 224.815 70.2368C244.096 79.8771 255.739 93.0581 255.739 107.396C255.739 121.734 244.096 134.915 224.815 144.555C205.579 154.173 178.952 160.144 149.5 160.144C120.049 160.144 93.4214 154.173 74.1851 144.555C54.9044 134.915 43.2622 121.734 43.2622 107.396C43.2624 93.0581 54.9044 79.8771 74.1851 70.2368C93.4214 60.6186 120.049 54.6489 149.5 54.6489Z" stroke="url(#paint0_linear_1_437)" stroke-width="1.48585"/>
<path d="M149.5 60.5923C178.952 60.5923 205.579 66.5621 224.815 76.1802C244.096 85.8205 255.739 99.0015 255.739 113.339C255.739 127.677 244.096 140.858 224.815 150.499C205.579 160.117 178.952 166.087 149.5 166.087C120.049 166.087 93.4214 160.117 74.1851 150.499C54.9044 140.858 43.2622 127.677 43.2622 113.339C43.2624 99.0015 54.9044 85.8205 74.1851 76.1802C93.4214 66.562 120.049 60.5923 149.5 60.5923Z" stroke="url(#paint1_linear_1_437)" stroke-width="1.48585"/>
<path d="M149.5 66.5356C178.952 66.5357 205.579 72.5055 224.815 82.1235C244.096 91.7639 255.739 104.945 255.739 119.283C255.739 133.621 244.096 146.801 224.815 156.442C205.579 166.06 178.952 172.031 149.5 172.031C120.049 172.031 93.4214 166.06 74.1851 156.442C54.9044 146.802 43.2622 133.621 43.2622 119.283C43.2624 104.945 54.9044 91.7639 74.1851 82.1235C93.4214 72.5053 120.049 66.5356 149.5 66.5356Z" stroke="url(#paint2_linear_1_437)" stroke-width="1.48585"/>
<path d="M149.5 72.479C178.952 72.479 205.579 78.4488 224.815 88.0669C244.096 97.7072 255.739 110.888 255.739 125.226C255.739 139.564 244.096 152.745 224.815 162.385C205.579 172.003 178.952 177.974 149.5 177.974C120.049 177.974 93.4214 172.003 74.1851 162.385C54.9044 152.745 43.2622 139.564 43.2622 125.226C43.2624 110.888 54.9044 97.7072 74.1851 88.0669C93.4214 78.4487 120.049 72.479 149.5 72.479Z" stroke="url(#paint3_linear_1_437)" stroke-width="1.48585"/>
<path d="M149.5 78.4224C178.952 78.4224 205.579 84.3922 224.815 94.0103C244.096 103.651 255.739 116.832 255.739 131.169C255.739 145.507 244.096 158.688 224.815 168.329C205.579 177.947 178.952 183.917 149.5 183.917C120.049 183.917 93.4214 177.947 74.1851 168.329C54.9044 158.688 43.2622 145.507 43.2622 131.169C43.2624 116.832 54.9044 103.651 74.1851 94.0103C93.4214 84.3921 120.049 78.4224 149.5 78.4224Z" stroke="url(#paint4_linear_1_437)" stroke-width="1.48585"/>
<path d="M149.5 84.3657C178.952 84.3658 205.579 90.3355 224.815 99.9536C244.096 109.594 255.739 122.775 255.739 137.113C255.739 151.451 244.096 164.632 224.815 174.272C205.579 183.89 178.952 189.861 149.5 189.861C120.049 189.861 93.4214 183.89 74.1851 174.272C54.9044 164.632 43.2622 151.451 43.2622 137.113C43.2624 122.775 54.9044 109.594 74.1851 99.9536C93.4214 90.3354 120.049 84.3657 149.5 84.3657Z" stroke="url(#paint5_linear_1_437)" stroke-width="1.48585"/>
<path d="M149.5 90.3091C178.952 90.3091 205.579 96.2789 224.815 105.897C244.096 115.537 255.739 128.718 255.739 143.056C255.739 157.394 244.096 170.575 224.815 180.215C205.579 189.833 178.952 195.804 149.5 195.804C120.049 195.804 93.4214 189.834 74.1851 180.215C54.9044 170.575 43.2622 157.394 43.2622 143.056C43.2624 128.718 54.9044 115.537 74.1851 105.897C93.4214 96.2788 120.049 90.3091 149.5 90.3091Z" stroke="url(#paint6_linear_1_437)" stroke-width="1.48585"/>
<path d="M149.5 96.2524C178.952 96.2525 205.579 102.222 224.815 111.84C244.096 121.481 255.739 134.662 255.739 149C255.739 163.338 244.096 176.518 224.815 186.159C205.579 195.777 178.952 201.748 149.5 201.748C120.049 201.748 93.4214 195.777 74.1851 186.159C54.9044 176.518 43.2622 163.337 43.2622 149C43.2624 134.662 54.9044 121.481 74.1851 111.84C93.4214 102.222 120.049 96.2524 149.5 96.2524Z" stroke="url(#paint7_linear_1_437)" stroke-width="1.48585"/>
<path d="M149.5 102.196C178.952 102.196 205.579 108.166 224.815 117.784C244.096 127.424 255.739 140.605 255.739 154.943C255.739 169.281 244.096 182.462 224.815 192.102C205.579 201.72 178.952 207.691 149.5 207.691C120.049 207.691 93.4214 201.72 74.1851 192.102C54.9044 182.462 43.2622 169.281 43.2622 154.943C43.2624 140.605 54.9044 127.424 74.1851 117.784C93.4214 108.166 120.049 102.196 149.5 102.196Z" stroke="url(#paint8_linear_1_437)" stroke-width="1.48585"/>
<path d="M149.5 108.139C178.952 108.139 205.579 114.109 224.815 123.727C244.096 133.367 255.739 146.548 255.739 160.886C255.739 175.224 244.096 188.405 224.815 198.045C205.579 207.664 178.952 213.634 149.5 213.634C120.049 213.634 93.4214 207.664 74.1851 198.045C54.9044 188.405 43.2622 175.224 43.2622 160.886C43.2624 146.548 54.9044 133.367 74.1851 123.727C93.4214 114.109 120.049 108.139 149.5 108.139Z" stroke="url(#paint9_linear_1_437)" stroke-width="1.48585"/>
<path d="M149.5 114.083C178.952 114.083 205.579 120.053 224.815 129.671C244.096 139.311 255.739 152.492 255.739 166.83C255.739 181.168 244.096 194.349 224.815 203.989C205.579 213.607 178.952 219.578 149.5 219.578C120.049 219.578 93.4214 213.607 74.1851 203.989C54.9044 194.349 43.2622 181.168 43.2622 166.83C43.2624 152.492 54.9044 139.311 74.1851 129.671C93.4214 120.053 120.049 114.083 149.5 114.083Z" stroke="url(#paint10_linear_1_437)" stroke-width="1.48585"/>
<path d="M149.5 120.026C178.952 120.026 205.579 125.996 224.815 135.614C244.096 145.255 255.739 158.436 255.739 172.773C255.739 187.111 244.096 200.292 224.815 209.933C205.579 219.551 178.952 225.521 149.5 225.521C120.049 225.521 93.4214 219.551 74.1851 209.933C54.9044 200.292 43.2622 187.111 43.2622 172.773C43.2624 158.436 54.9044 145.255 74.1851 135.614C93.4214 125.996 120.049 120.026 149.5 120.026Z" stroke="url(#paint11_linear_1_437)" stroke-width="1.48585"/>
<path d="M149.5 125.97C178.952 125.97 205.579 131.94 224.815 141.558C244.096 151.198 255.739 164.379 255.739 178.717C255.739 193.055 244.096 206.236 224.815 215.876C205.579 225.494 178.952 231.465 149.5 231.465C120.049 231.465 93.4214 225.494 74.1851 215.876C54.9044 206.236 43.2622 193.055 43.2622 178.717C43.2624 164.379 54.9044 151.198 74.1851 141.558C93.4214 131.939 120.049 125.97 149.5 125.97Z" stroke="url(#paint12_linear_1_437)" stroke-width="1.48585"/>
<path d="M149.5 131.913C178.952 131.913 205.579 137.883 224.815 147.501C244.096 157.141 255.739 170.322 255.739 184.66C255.739 198.998 244.096 212.179 224.815 221.819C205.579 231.437 178.952 237.408 149.5 237.408C120.049 237.408 93.4214 231.438 74.1851 221.819C54.9044 212.179 43.2622 198.998 43.2622 184.66C43.2624 170.322 54.9044 157.141 74.1851 147.501C93.4214 137.883 120.049 131.913 149.5 131.913Z" stroke="url(#paint13_linear_1_437)" stroke-width="1.48585"/>
<path d="M149.5 137.856C178.952 137.856 205.579 143.826 224.815 153.444C244.096 163.085 255.739 176.266 255.739 190.604C255.739 204.942 244.096 218.122 224.815 227.763C205.579 237.381 178.952 243.352 149.5 243.352C120.049 243.352 93.4214 237.381 74.1851 227.763C54.9044 218.122 43.2622 204.941 43.2622 190.604C43.2624 176.266 54.9044 163.085 74.1851 153.444C93.4214 143.826 120.049 137.856 149.5 137.856Z" stroke="url(#paint14_linear_1_437)" stroke-width="1.48585"/>
<defs>
<linearGradient id="paint0_linear_1_437" x1="149.5" y1="53.9058" x2="149.5" y2="160.887" gradientUnits="userSpaceOnUse">
<stop stop-color="white"/>
<stop offset="1" stop-color="#807D7D" stop-opacity="0.54"/>
</linearGradient>
<linearGradient id="paint1_linear_1_437" x1="149.5" y1="59.8491" x2="149.5" y2="166.83" gradientUnits="userSpaceOnUse">
<stop stop-color="white"/>
<stop offset="1" stop-color="#807D7D" stop-opacity="0.54"/>
</linearGradient>
<linearGradient id="paint2_linear_1_437" x1="149.5" y1="65.7925" x2="149.5" y2="172.774" gradientUnits="userSpaceOnUse">
<stop stop-color="white"/>
<stop offset="1" stop-color="#807D7D" stop-opacity="0.54"/>
</linearGradient>
<linearGradient id="paint3_linear_1_437" x1="149.5" y1="71.7358" x2="149.5" y2="178.717" gradientUnits="userSpaceOnUse">
<stop stop-color="white"/>
<stop offset="1" stop-color="#807D7D" stop-opacity="0.54"/>
</linearGradient>
<linearGradient id="paint4_linear_1_437" x1="149.5" y1="77.6792" x2="149.5" y2="184.66" gradientUnits="userSpaceOnUse">
<stop stop-color="white"/>
<stop offset="1" stop-color="#807D7D" stop-opacity="0.54"/>
</linearGradient>
<linearGradient id="paint5_linear_1_437" x1="149.5" y1="83.6226" x2="149.5" y2="190.604" gradientUnits="userSpaceOnUse">
<stop stop-color="white"/>
<stop offset="1" stop-color="#807D7D" stop-opacity="0.54"/>
</linearGradient>
<linearGradient id="paint6_linear_1_437" x1="149.5" y1="89.5659" x2="149.5" y2="196.547" gradientUnits="userSpaceOnUse">
<stop stop-color="white"/>
<stop offset="1" stop-color="#807D7D" stop-opacity="0.54"/>
</linearGradient>
<linearGradient id="paint7_linear_1_437" x1="149.5" y1="95.5093" x2="149.5" y2="202.49" gradientUnits="userSpaceOnUse">
<stop stop-color="white"/>
<stop offset="1" stop-color="#807D7D" stop-opacity="0.54"/>
</linearGradient>
<linearGradient id="paint8_linear_1_437" x1="149.5" y1="101.453" x2="149.5" y2="208.434" gradientUnits="userSpaceOnUse">
<stop stop-color="white"/>
<stop offset="1" stop-color="#807D7D" stop-opacity="0.54"/>
</linearGradient>
<linearGradient id="paint9_linear_1_437" x1="149.5" y1="107.396" x2="149.5" y2="214.377" gradientUnits="userSpaceOnUse">
<stop stop-color="white"/>
<stop offset="1" stop-color="#807D7D" stop-opacity="0.54"/>
</linearGradient>
<linearGradient id="paint10_linear_1_437" x1="149.5" y1="113.34" x2="149.5" y2="220.321" gradientUnits="userSpaceOnUse">
<stop stop-color="white"/>
<stop offset="1" stop-color="#807D7D" stop-opacity="0.54"/>
</linearGradient>
<linearGradient id="paint11_linear_1_437" x1="149.5" y1="119.283" x2="149.5" y2="226.264" gradientUnits="userSpaceOnUse">
<stop stop-color="white"/>
<stop offset="1" stop-color="#807D7D" stop-opacity="0.54"/>
</linearGradient>
<linearGradient id="paint12_linear_1_437" x1="149.5" y1="125.227" x2="149.5" y2="232.208" gradientUnits="userSpaceOnUse">
<stop stop-color="white"/>
<stop offset="1" stop-color="#807D7D" stop-opacity="0.54"/>
</linearGradient>
<linearGradient id="paint13_linear_1_437" x1="149.5" y1="131.17" x2="149.5" y2="238.151" gradientUnits="userSpaceOnUse">
<stop stop-color="white"/>
<stop offset="1" stop-color="#807D7D" stop-opacity="0.54"/>
</linearGradient>
<linearGradient id="paint14_linear_1_437" x1="149.5" y1="137.113" x2="149.5" y2="244.094" gradientUnits="userSpaceOnUse">
<stop stop-color="white"/>
<stop offset="1" stop-color="#807D7D" stop-opacity="0.54"/>
</linearGradient>
</defs>
</svg>
