<svg width="301" height="300" viewBox="0 0 301 300" fill="none" xmlns="http://www.w3.org/2000/svg">
<path fill-rule="evenodd" clip-rule="evenodd" d="M196.443 65.2431L100.567 66.332L54.7386 145.71L98.6534 234.526L197.197 234.964L246.068 150.318L196.443 65.2431ZM217.963 192.997L241.742 151.811L203.734 151.641L179.661 193.338L217.963 192.997ZM216.222 196.012L195.469 231.957L157.462 231.788L177.92 196.354L216.222 196.012ZM174.438 196.385L154.007 231.772L102.179 231.541L122.208 196.85L174.438 196.385ZM119.618 195.336L99.6894 229.853L76.5173 182.988L95.2372 150.564L119.618 195.336ZM96.9951 147.519L121.376 192.291L145.861 149.882L121.208 106.039L120.941 106.043L96.9951 147.519ZM93.5558 147.476L74.9193 179.756L58.1395 145.819L75.901 115.055L93.5558 147.476ZM77.6589 112.011L95.3137 144.432L119.193 103.072L119.536 103.066L101.422 70.852L77.6589 112.011ZM123.949 193.834L176.179 193.369L200.279 151.626L148.451 151.395L123.949 193.834ZM199.82 148.624L148.467 148.395L124.617 105.981L174.458 105.143L199.82 148.624ZM172.725 102.172L122.946 103.009L103.987 69.2933L153.221 68.7342L172.725 102.172ZM156.671 68.695L176.164 102.114L214.104 101.476L194.731 68.2628L156.671 68.695ZM215.838 104.447L177.897 105.085L203.303 148.639L241.715 148.811L215.838 104.447Z" fill="url(#paint0_linear_1_433)"/>
<defs>
<linearGradient id="paint0_linear_1_433" x1="98" y1="66" x2="195.5" y2="240" gradientUnits="userSpaceOnUse">
<stop stop-color="white"/>
<stop offset="1" stop-color="#3C3C3C"/>
</linearGradient>
</defs>
</svg>
