<svg width="84" height="36" viewBox="0 0 84 36" fill="none" xmlns="http://www.w3.org/2000/svg">
<g clip-path="url(#clip0_48_27)">
<path d="M73.9112 17.0815L73.8741 17.1187C74.1343 16.4125 74.6546 16.1523 75.1006 16.1523C75.7325 16.1523 76.29 16.6355 76.29 17.3417C76.29 17.4904 76.29 17.6762 76.2157 17.8992C74.9148 21.2444 72.1643 22.9541 69.4882 23.2143C68.2617 25.2957 66.2546 26.8196 63.3926 26.8196C59.3041 26.8196 57.4829 23.586 57.4829 20.055C57.4829 15.7063 60.2334 10.8744 64.8422 10.8744C65.8457 10.8744 66.7006 11.0975 67.4068 11.3948C69.4882 12.1753 70.8263 14.8886 70.8263 17.7877C70.8263 18.7169 70.7519 19.6461 70.5289 20.5382C71.9042 20.055 73.205 18.9399 73.9112 17.0815ZM66.1431 13.9222V13.8851C65.3254 13.8851 64.8422 14.9629 64.8422 16.2638C64.8422 18.1594 65.8829 19.9063 67.5183 20.5382C67.7785 19.7205 67.89 18.7913 67.89 17.7134C67.89 15.632 67.2581 13.9222 66.1431 13.9222ZM63.4298 24.1063C64.4705 24.1063 65.5112 23.6603 66.3289 22.7311C63.913 21.6532 62.3891 19.1258 62.3891 16.7098C62.3891 15.8921 62.5378 15.0373 62.7608 14.2939C61.2741 15.5205 60.4192 17.9364 60.4192 20.055C60.4192 22.8054 61.7201 24.1063 63.4298 24.1063Z" fill="white"/>
<path d="M58.0568 17.0815L58.0196 17.1187C58.2798 16.4125 58.7258 16.1152 59.1718 16.1152C59.8037 16.1152 60.4355 16.6727 60.4355 17.3789C60.4355 17.5647 60.3984 17.7134 60.324 17.8992C58.8745 21.4302 56.7187 25.5559 53.2621 27.9718L53.1878 28.7152C52.7789 33.1754 50.5117 36.0001 47.6497 36.0001C45.4939 36.0001 44.2302 34.5134 44.2302 32.7665C44.2302 29.6072 47.4638 28.455 50.4745 26.5223C50.5488 25.7417 50.586 24.8497 50.6231 23.8461C49.1364 25.4815 47.5382 26.1506 46.1258 26.1506C43.301 26.1506 40.9966 23.8461 40.9966 20.3152C40.9966 14.8886 44.5647 11.3205 48.5417 11.3205H48.5789C51.2922 11.3205 54.1913 12.77 54.1913 15.3718C54.1913 16.2267 53.8196 20.8727 53.5223 24.478C55.5293 22.5824 57.2019 19.4975 58.0568 17.0815ZM46.5346 23.4745C47.9099 23.4745 49.7683 22.6196 50.9205 18.4196C51.1063 17.4904 51.2178 16.6727 51.1807 15.7063C50.9577 14.7028 50.1028 14.1081 48.8762 14.1081C46.3488 14.1081 43.9329 16.524 43.9329 20.2037C43.9329 22.4338 44.9736 23.4745 46.5346 23.4745ZM47.947 33.2869H47.9842C48.7647 33.2869 49.6196 32.7665 50.1771 29.4214C48.5417 30.3877 47.0178 31.3541 47.0178 32.5063C47.0178 32.9895 47.3895 33.2869 47.947 33.2869Z" fill="white"/>
<path d="M41.649 17.0815L41.6119 17.1187C41.872 16.4125 42.3924 16.1523 42.8384 16.1523C43.4703 16.1523 44.0278 16.6355 44.0278 17.3417C44.0278 17.4904 44.0278 17.6762 43.9535 17.8992C42.6526 21.2444 39.9021 22.9541 37.226 23.2143C35.9995 25.2957 33.9924 26.8196 31.1304 26.8196C27.0419 26.8196 25.2207 23.586 25.2207 20.055C25.2207 15.7063 27.9711 10.8744 32.58 10.8744C33.5835 10.8744 34.4384 11.0975 35.1446 11.3948C37.226 12.1753 38.5641 14.8886 38.5641 17.7877C38.5641 18.7169 38.4897 19.6461 38.2667 20.5382C39.642 20.055 40.9428 18.9399 41.649 17.0815ZM33.8809 13.9222V13.8851C33.0632 13.8851 32.58 14.9629 32.58 16.2638C32.58 18.1594 33.6207 19.9063 35.2561 20.5382C35.5163 19.7205 35.6278 18.7913 35.6278 17.7134C35.6278 15.632 34.9959 13.9222 33.8809 13.9222ZM31.1676 24.1063C32.2083 24.1063 33.249 23.6603 34.0667 22.7311C31.6508 21.6532 30.1269 19.1258 30.1269 16.7098C30.1269 15.8921 30.2756 15.0373 30.4986 14.2939C29.0119 15.5205 28.157 17.9364 28.157 20.055C28.157 22.8054 29.4579 24.1063 31.1676 24.1063Z" fill="white"/>
<path d="M27.1096 15.9083C26.5892 15.9083 26.1432 16.1685 25.8458 16.8747C24.8795 19.3278 22.8723 23.4907 20.828 23.4907C19.5408 23.4907 18.5447 23.1996 17.5381 22.9054C16.5102 22.605 15.4714 22.3013 14.1005 22.3013C13.6173 22.3013 12.9483 22.3757 12.3164 22.4872C14.22 19.8914 14.9311 16.7477 15.6202 10.8054C14.3228 10.7228 13.2673 10.4831 12.4981 10.241C11.6764 17.7775 10.7434 20.6511 7.33579 23.4907C6.88976 23.8624 6.66675 24.3828 6.66675 24.9032C6.66675 25.7209 7.37296 26.4271 8.26502 26.4271C8.56237 26.4271 8.89688 26.3156 9.2314 26.1669C11.127 25.312 12.2792 25.089 13.6917 25.089C14.5898 25.089 15.6646 25.3459 16.8152 25.6208C18.1406 25.9376 19.5667 26.2784 20.9396 26.2784C23.9502 26.2784 25.9202 23.3421 28.1131 17.6552C28.2247 17.4694 28.2618 17.2464 28.2618 17.0605C28.2618 16.3543 27.7043 15.9083 27.1096 15.9083Z" fill="white"/>
<path fill-rule="evenodd" clip-rule="evenodd" d="M12.6867 8.70287C13.3597 8.93784 14.4106 9.2114 15.773 9.29233L15.996 9.29222C20.1961 9.29222 22.9466 6.6904 22.9466 3.56821C22.9466 1.56109 21.3855 0 19.1925 0C16.2562 0 14.2119 2.00712 13.1712 5.98419C11.8703 5.27798 10.9782 4.01424 10.5322 2.41598C10.3092 1.63543 9.82598 1.15223 9.15693 1.15223C8.33922 1.15223 7.81885 1.78411 7.81885 2.63899C7.81885 5.16648 9.78881 7.58245 12.688 8.69752L12.6867 8.70287ZM16.219 6.57889C16.7765 4.01424 17.6686 2.78767 18.858 2.78767C19.4899 2.78767 19.8987 3.15936 19.8987 3.8284C19.8987 5.05497 18.5978 6.50455 16.219 6.57889Z" fill="white"/>
</g>
<defs>
<clipPath id="clip0_48_27">
<rect width="70" height="36" fill="white" transform="translate(6.66675)"/>
</clipPath>
</defs>
</svg>
