<svg width="357" height="423" viewBox="0 0 357 423" fill="none" xmlns="http://www.w3.org/2000/svg">
<path d="M21.6318 0.712402H293.336C298.852 0.712402 304.145 2.89448 308.06 6.78174L350.052 48.4858C354.001 52.4082 356.223 57.7448 356.223 63.311V401.693C356.223 413.232 346.868 422.586 335.329 422.586H21.6318C10.0928 422.586 0.738413 413.232 0.738281 401.693V21.606C0.738505 10.067 10.0929 0.712621 21.6318 0.712402Z" fill="#323838" stroke="#5D6F6F" stroke-width="0.438058"/>
<mask id="mask0_1_344" style="mask-type:alpha" maskUnits="userSpaceOnUse" x="0" y="0" width="357" height="423">
<path d="M21.6318 0.712402H293.336C298.852 0.712402 304.145 2.89448 308.06 6.78174L350.052 48.4858C354.001 52.4082 356.223 57.7448 356.223 63.311V401.693C356.223 413.232 346.868 422.586 335.329 422.586H21.6318C10.0928 422.586 0.738413 413.232 0.738281 401.693V21.606C0.738505 10.067 10.0929 0.712621 21.6318 0.712402Z" fill="#323838" stroke="#5D6F6F" stroke-width="0.438058"/>
</mask>
<g mask="url(#mask0_1_344)">
<g opacity="0.4" filter="url(#filter0_f_1_344)">
<ellipse cx="413.025" cy="215.774" rx="413.025" ry="215.774" transform="matrix(0.659365 0.751823 -0.623437 0.781874 -17.2036 94.2183)" fill="#5D6F6F"/>
</g>
</g>
<defs>
<filter id="filter0_f_1_344" x="-270.817" y="132.377" width="782.852" height="882.142" filterUnits="userSpaceOnUse" color-interpolation-filters="sRGB">
<feFlood flood-opacity="0" result="BackgroundImageFix"/>
<feBlend mode="normal" in="SourceGraphic" in2="BackgroundImageFix" result="shape"/>
<feGaussianBlur stdDeviation="43.8058" result="effect1_foregroundBlur_1_344"/>
</filter>
</defs>
</svg>
