<svg width="848" height="123" viewBox="0 0 848 123" fill="none" xmlns="http://www.w3.org/2000/svg">
<path d="M848 4.5C848 2.29086 846.209 0.5 844 0.5C841.791 0.5 840 2.29086 840 4.5C840 6.70914 841.791 8.5 844 8.5C846.209 8.5 848 6.70914 848 4.5ZM757 118.5V119.25H757.371L757.596 118.955L757 118.5ZM8.5 118.5C8.5 116.291 6.70917 114.5 4.5 114.5C2.29083 114.5 0.5 116.291 0.5 118.5C0.5 120.709 2.29083 122.5 4.5 122.5C6.70917 122.5 8.5 120.709 8.5 118.5ZM844 4.5L843.404 4.045L756.404 118.045L757 118.5L757.596 118.955L844.596 4.955L844 4.5ZM757 118.5V117.75H4.5V118.5V119.25H757V118.5Z" fill="#9CC1C1"/>
</svg>
