<svg width="867" height="428" viewBox="0 0 867 428" fill="none" xmlns="http://www.w3.org/2000/svg">
<path d="M0.729248 423.5C0.729248 425.709 2.52011 427.5 4.72925 427.5C6.93839 427.5 8.72925 425.709 8.72925 423.5C8.72925 421.291 6.93839 419.5 4.72925 419.5C2.52011 419.5 0.729248 421.291 0.729248 423.5ZM117 4.5V3.75H116.424L116.276 4.30589L117 4.5ZM859 4.5C859 6.70914 860.791 8.5 863 8.5C865.209 8.5 867 6.70914 867 4.5C867 2.29086 865.209 0.5 863 0.5C860.791 0.5 859 2.29086 859 4.5ZM4.72925 423.5L5.45369 423.694L117.724 4.69411L117 4.5L116.276 4.30589L4.0048 423.306L4.72925 423.5ZM117 4.5V5.25H863V4.5V3.75H117V4.5Z" fill="#9CC1C1"/>
</svg>
